<?xml version="1.0" encoding="utf-8"?>
<!-- Generator: Adobe Illustrator 21.0.2, SVG Export Plug-In . SVG Version: 6.00 Build 0)  -->
<svg version="1.1" xmlns="http://www.w3.org/2000/svg" xmlns:xlink="http://www.w3.org/1999/xlink" x="0px" y="0px"
	 viewBox="0 0 500 500" style="enable-background:new 0 0 500 500;" xml:space="preserve">
<style type="text/css">
	.st0{fill:#FF6633;}
	.st1{fill:#303030;}
	.st2{fill:#FFFFFF;}
</style>
<g id="beer">
	<rect x="106" y="148" class="st0" width="215" height="262"/>
</g>
<g id="glass">
	<path class="st1" d="M385.5,176.1h-41.8v0v-7.4c0-22.3-18.2-40.4-40.4-40.4H129.4c-22.3,0-40.4,18.1-40.4,40.4v7.4v42.2v207.1
		c0,22.3,18.2,40.4,40.4,40.4h173.8c22.3,0,40.4-18.1,40.4-40.4V385h41.8c22.3,0,40.4-18.1,40.4-40.4v-128
		C425.9,194.2,407.8,176.1,385.5,176.1z M316.8,425.4c0,7.4-6.1,13.5-13.5,13.5H129.4c-7.4,0-13.5-6.1-13.5-13.5v-6.7h200.8V425.4z
		 M316.8,176.1v31v184.7H116V218.4v-42.3v-7.4c0-7.4,6.1-13.5,13.5-13.5h173.8c7.4,0,13.5,6.1,13.5,13.5V176.1z M399,344.6
		c0,7.4-6,13.5-13.5,13.5h-41.8V206.3v-3.2h41.8c7.4,0,13.5,6,13.5,13.5V344.6z"/>
</g>
<g id="glass_indents">
	<g>
		<path class="st1" d="M156.4,350.8c-7.4,0-13.4-6-13.4-13.4v-94.1c0-7.4,6-13.4,13.4-13.4s13.4,6,13.4,13.4v94.1
			C169.9,344.8,163.8,350.8,156.4,350.8z"/>
	</g>
	<g>
		<path class="st1" d="M216.9,350.8c-7.4,0-13.4-6-13.4-13.4v-94.1c0-7.4,6-13.4,13.4-13.4s13.4,6,13.4,13.4v94.1
			C230.3,344.8,224.3,350.8,216.9,350.8z"/>
	</g>
	<g>
		<path class="st1" d="M277.4,350.8c-7.4,0-13.4-6-13.4-13.4v-94.1c0-7.4,6-13.4,13.4-13.4s13.4,6,13.4,13.4v94.1
			C290.8,344.8,284.8,350.8,277.4,350.8z"/>
	</g>
</g>
<g id="dripoutline">
	<path class="st1" d="M121.8,127v49.1c0,18.5,15.1,33.6,33.6,33.6c18.5,0,33.6-15,33.6-33.6l0-49.1H121.8z"/>
</g>
<g id="foamoutline">
	<path class="st1" d="M189,156h120c2.4,0,4.8-0.3,7.5-0.9c9.7-1.7,18.5-5.7,25.7-11.6c13.2-10.5,21.5-26.7,21.5-44.7
		c0-31.5-25.6-57.1-57.1-57.1c-20.4,0-38.2,10.7-48.4,26.8c-6.4-4.2-14-6.7-22.2-6.7c-6.6,0-12.9,1.6-18.5,4.5
		c-12.8-19.3-34.6-31.4-58.7-31.4c-35.7,0-65,26.1-69.8,60.7c-8.1,6.2-13.1,16-13.1,26.6c0,10.5,4.8,19.9,12.4,26.1
		c5.8,4.7,13.2,7.5,21.2,7.5h12.4H189z"/>
</g>
<g id="white_drip">
	<path class="st2" d="M135.2,129.1c7.5,0,13.4,6,13.4,13.4v33.6c0,3.6,3.1,6.7,6.7,6.7c3.7,0,6.7-3.1,6.7-6.7v-33.6
		c0-7.4,6-13.4,13.4-13.4"/>
	<g>
		<path class="st2" d="M307.6,68.8c-16.8,0-30.4,13.6-30.4,30.4c0,0.8,0.1,1.6,0.1,2.4c0.3,3.7-1,7.4-3.5,10.2
			c-2.6,2.8-6.1,4.3-9.9,4.3c-7.5,0-13.7-6.1-13.7-13.5c0-7.4-6-13.5-13.5-13.5c-4.7,0-8.9,2.4-11.4,6.6c-2.8,4.5-7.9,7-13.2,6.3
			c-5.3-0.6-9.7-4.3-11.2-9.3C195,74.4,178.2,62.1,159,62.1c-23.8,0-43,18.6-43.8,42.5c-0.2,5.3-3.4,10.1-8.4,12.1
			c-2.1,0.9-4.2,3.1-4.2,6.2c0,3.6,3,6.8,6.8,6.8h25.9c7.5,0,13.5,6.1,13.5,13.5v33.8c0,3.6,3.1,6.8,6.8,6.8c3.7,0,6.8-3.1,6.8-6.8
			v-33.8c0-7.4,6.1-13.5,13.5-13.5H310c0.3,0,0.9-0.1,1.6-0.3c0.3-0.1,0.7-0.1,1-0.2c14.7-2.4,25.4-15,25.4-29.9
			C338,82.5,324.4,68.8,307.6,68.8z"/>
		<path class="st1" d="M307.6,41.8c-20.5,0-38.4,10.8-48.6,27c-6.4-4.3-14.1-6.7-22.3-6.7c-6.6,0-13,1.6-18.6,4.5
			c-12.8-19.4-34.8-31.5-59-31.5c-35.9,0-65.4,26.3-70.2,61.1c-8.2,6.3-13.2,16.1-13.2,26.8c0,10.5,4.9,20,12.4,26.2
			c5.8,4.7,13.2,7.6,21.3,7.6h12.4v20.3c0,18.6,15.2,33.8,33.8,33.8c18.6,0,33.8-15.1,33.8-33.8v-20.3H310c2.4,0,4.9-0.3,7.5-0.9
			c9.7-1.7,18.6-5.7,25.9-11.6c13.3-10.5,21.6-26.8,21.6-44.9C365,67.5,339.3,41.8,307.6,41.8z M312.6,129.2c-0.3,0.1-0.7,0.1-1,0.2
			c-0.7,0.2-1.2,0.3-1.6,0.3H175.8c-7.4,0-13.5,6.1-13.5,13.5v33.8c0,3.6-3,6.8-6.8,6.8c-3.6,0-6.8-3.1-6.8-6.8v-33.8
			c0-7.4-6-13.5-13.5-13.5h-25.9c-3.7,0-6.8-3.1-6.8-6.8c0-3.1,2.1-5.3,4.2-6.2c4.9-2,8.2-6.8,8.4-12.1c0.7-23.8,20-42.5,43.8-42.5
			c19.3,0,36,12.3,41.9,30.6c1.6,5,5.9,8.6,11.2,9.3c5.3,0.7,10.4-1.8,13.2-6.3c2.5-4.1,6.8-6.6,11.4-6.6c7.5,0,13.5,6.1,13.5,13.5
			c0,7.4,6.2,13.5,13.7,13.5c3.8,0,7.4-1.6,9.9-4.3c2.5-2.8,3.9-6.5,3.5-10.2c-0.1-0.8-0.1-1.6-0.1-2.4c0-16.8,13.6-30.4,30.4-30.4
			c16.8,0,30.4,13.6,30.4,30.4C338,114.2,327.3,126.7,312.6,129.2z"/>
	</g>
</g>
<g id="whitefoam">
	<path class="st2" d="M135.2,129h-25.8c-3.7,0-6.7-3.1-6.7-6.7c0-3.1,2.1-5.3,4.2-6.2c4.9-2,8.1-6.7,8.3-12
		c0.7-23.7,19.9-42.3,43.5-42.3c19.1,0,35.8,12.2,41.7,30.4c1.5,5,5.9,8.6,11.2,9.2c5.2,0.7,10.3-1.8,13.1-6.2
		c2.5-4.1,6.7-6.5,11.4-6.5c7.5,0,13.4,6,13.4,13.4c0,7.4,6.2,13.4,13.6,13.4c3.8,0,7.3-1.5,9.9-4.3c2.5-2.8,3.8-6.5,3.5-10.1
		c-0.1-0.8-0.1-1.5-0.1-2.4c0-16.7,13.6-30.2,30.2-30.2c16.7,0,30.2,13.6,30.2,30.2c0,14.8-10.6,27.3-25.3,29.8
		c-0.3,0.1-0.7,0.1-1,0.2c-0.7,0.2-1.2,0.3-1.5,0.3H175.5H135.2z"/>
</g>
</svg>
