<?xml version="1.0" encoding="utf-8"?>
<!-- Generator: Adobe Illustrator 21.0.2, SVG Export Plug-In . SVG Version: 6.00 Build 0)  -->
<svg version="1.1" id="Layer_1" xmlns="http://www.w3.org/2000/svg" xmlns:xlink="http://www.w3.org/1999/xlink" x="0px" y="0px"
	 viewBox="0 0 500 500" style="enable-background:new 0 0 500 500;" xml:space="preserve">
<style type="text/css">
	.st0{fill:#FF6633;}
	.st1{fill:#FFFFFF;}
	.st2{fill:#303030;}
</style>
<g>
	
		<rect x="269.7" y="174" transform="matrix(0.9718 -0.2358 0.2358 0.9718 -51.6147 87.4759)" class="st0" width="140.3" height="171"/>
	<path class="st1" d="M365.5,115.6c-10.6,2.6-17.1,13.3-14.5,23.8c0.1,0.5,0.3,1,0.4,1.5c0.8,2.3,0.5,4.8-0.7,7
		c-1.2,2.1-3.2,3.7-5.6,4.2c-4.7,1.1-9.6-1.7-10.7-6.4c-1.1-4.7-5.9-7.6-10.6-6.5c-2.9,0.7-5.3,2.9-6.2,5.9c-1.1,3.2-3.9,5.6-7.3,6
		c-3.4,0.4-6.7-1.2-8.5-4.1c-6.5-10.6-19-15.8-31.1-12.9c-15,3.6-24.3,18.3-21.1,33.5c0.7,3.4-0.6,6.9-3.4,8.9
		c-1.2,0.9-2.2,2.6-1.7,4.6c0.6,2.3,3,3.8,5.3,3.2l16.4-4c4.7-1.1,9.5,1.8,10.6,6.5l5.2,21.3c0.6,2.3,3,3.8,5.3,3.2
		c2.3-0.6,3.8-3,3.2-5.3l-5.2-21.3c-1.1-4.7,1.8-9.5,6.5-10.6l84.6-20.5c0.2-0.1,0.5-0.2,0.9-0.4c0.2-0.1,0.4-0.2,0.6-0.3
		c8.9-3.8,13.7-13.3,11.4-22.8C386.8,119.6,376.1,113.1,365.5,115.6z"/>
	<g>
		<path class="st2" d="M399.6,157.7L442.9,336c3.4,14.1-5.3,28.3-19.4,31.8l-109.9,26.7c-14.1,3.4-28.4-5.3-31.8-19.4l-42.5-175.2
			c4.4,2.1,9.5,2.7,14.6,1.5l3.6-0.9L298.9,371c1.1,4.7,5.9,7.6,10.6,6.5l109.9-26.7c4.7-1.1,7.6-5.9,6.5-10.6l-41.4-170.5l-4,1
			c1.5-0.4,3-0.9,4.6-1.7C391,166.4,395.9,162.5,399.6,157.7z"/>
	</g>
	<g>
		<path class="st2" d="M463.1,304l-34.1,8.3l-4.1-17L459,287c4.7-1.1,7.6-5.9,6.5-10.6l-19.6-81c-1.1-4.7-5.9-7.6-10.6-6.5
			l-34.1,8.3l-4.1-17l34.1-8.3c14.1-3.4,28.4,5.3,31.8,19.4l19.6,81C485.9,286.4,477.2,300.6,463.1,304z"/>
	</g>
	<g>
		
			<rect x="285.2" y="334.4" transform="matrix(0.9718 -0.2358 0.2358 0.9718 -70.8536 94.0141)" class="st2" width="144.7" height="17.5"/>
	</g>
	<g>
		<path class="st2" d="M351.4,308.6c-4.7,1.1-9.4-1.7-10.6-6.5l-14.5-59.7c-1.1-4.7,1.7-9.4,6.5-10.6s9.4,1.7,10.6,6.5l14.5,59.7
			C359,302.7,356.1,307.4,351.4,308.6z"/>
	</g>
	<g>
		<path class="st2" d="M389.8,299.3c-4.7,1.1-9.4-1.7-10.6-6.5l-14.5-59.7c-1.1-4.7,1.7-9.4,6.5-10.6c4.7-1.1,9.4,1.7,10.6,6.5
			l14.5,59.7C397.4,293.4,394.5,298.1,389.8,299.3z"/>
	</g>
	<path class="st2" d="M361.4,98.6c-12.9,3.1-22.6,12.7-26.6,24.4c-4.7-1.7-9.9-2.1-15.1-0.8c-4.2,1-7.9,3-11.1,5.7
		c-11.1-10.3-26.8-14.6-42.1-10.9c-22.6,5.5-37.2,26.6-34.9,49.3c-4.2,5.2-5.8,12.2-4.2,18.9c1.6,6.6,6.1,11.9,11.9,14.6
		c4.4,2.1,9.5,2.7,14.6,1.5l7.8-1.9l3.1,12.8c2.9,11.8,14.8,19,26.5,16.1c11.8-2.9,19-14.7,16.1-26.5l-3.1-12.8l76.1-18.5
		c1.5-0.4,3-0.9,4.6-1.7c5.9-2.6,10.8-6.5,14.5-11.3c6.8-8.7,9.5-20.2,6.8-31.6C401.5,106,381.4,93.8,361.4,98.6z M377.9,152.9
		c-0.2,0.1-0.4,0.2-0.6,0.3c-0.4,0.2-0.7,0.4-0.9,0.4l-84.6,20.5c-4.7,1.1-7.6,5.9-6.5,10.6l5.2,21.3c0.6,2.3-0.9,4.7-3.2,5.3
		c-2.3,0.6-4.7-0.9-5.3-3.2l-5.2-21.3c-1.1-4.7-5.9-7.6-10.6-6.5l-16.4,4c-2.3,0.6-4.7-0.9-5.3-3.2c-0.5-2,0.5-3.7,1.7-4.6
		c2.8-2,4.1-5.5,3.4-8.9c-3.2-15.2,6.1-29.9,21.1-33.5c12.1-2.9,24.6,2.2,31.1,12.9c1.7,2.9,5.1,4.5,8.5,4.1c3.4-0.4,6.3-2.7,7.3-6
		c0.9-3,3.3-5.2,6.2-5.9c4.7-1.1,9.5,1.8,10.6,6.5c1.1,4.7,6,7.6,10.7,6.4c2.4-0.6,4.4-2.1,5.6-4.2c1.2-2.1,1.4-4.7,0.7-7
		c-0.2-0.5-0.3-1-0.4-1.5c-2.6-10.6,4-21.3,14.5-23.8c10.6-2.6,21.3,4,23.8,14.5C391.6,139.6,386.8,149.1,377.9,152.9z"/>
	<g>
		<path class="st2" d="M313.1,317.9c-4.7,1.1-9.4-1.7-10.6-6.5L288,251.8c-1.1-4.7,1.7-9.4,6.5-10.6c4.7-1.1,9.4,1.7,10.6,6.5
			l14.5,59.7C320.7,312,317.8,316.7,313.1,317.9z"/>
	</g>
	
		<rect x="87.2" y="185.4" transform="matrix(-0.9916 -0.1291 0.1291 -0.9916 278.5003 559.8511)" class="st0" width="140.3" height="171"/>
	<g>
		<path class="st2" d="M86.9,176.2l-23.7,182c-1.9,14.4,8.3,27.6,22.7,29.5l112.2,14.6c14.3,1.9,27.6-8.3,29.5-22.7l23.3-178.8
			c-4.1,2.6-9.2,3.8-14.4,3.1l-3.7-0.5l-22.6,173.9c-0.6,4.8-5,8.2-9.8,7.6L88.2,370.2c-4.8-0.6-8.2-5-7.6-9.8l22.6-173.9l4.1,0.5
			c-1.6-0.2-3.1-0.6-4.8-1.2C96.5,183.9,91.1,180.6,86.9,176.2z"/>
	</g>
	<g>
		<path class="st2" d="M39.7,328.5l34.8,4.5l2.3-17.4l-34.8-4.5c-4.8-0.6-8.2-5-7.6-9.8l10.8-82.6c0.6-4.8,5-8.2,9.8-7.6l34.8,4.5
			l2.3-17.4l-34.8-4.5c-14.4-1.9-27.6,8.3-29.5,22.7L17,299.1C15.1,313.4,25.3,326.7,39.7,328.5z"/>
	</g>
	<g>
		
			<rect x="140.1" y="283.7" transform="matrix(0.1291 -0.9916 0.9916 0.1291 -223.3962 457.6874)" class="st2" width="17.5" height="144.7"/>
	</g>
	<g>
		<path class="st2" d="M190.3,326c4.8,0.6,9.2-2.8,9.8-7.6l7.9-60.9c0.6-4.8-2.8-9.2-7.6-9.8s-9.2,2.8-9.8,7.6l-7.9,60.9
			C182.2,321,185.5,325.4,190.3,326z"/>
	</g>
	<g>
		<path class="st2" d="M151.2,321c4.8,0.6,9.2-2.8,9.8-7.6l7.9-60.9c0.6-4.8-2.8-9.2-7.6-9.8c-4.8-0.6-9.2,2.8-9.8,7.6l-7.9,60.9
			C143,315.9,146.4,320.3,151.2,321z"/>
	</g>
	<g>
		<path class="st2" d="M112.1,315.9c4.8,0.6,9.2-2.8,9.8-7.6l7.9-60.9c0.6-4.8-2.8-9.2-7.6-9.8c-4.8-0.6-9.2,2.8-9.8,7.6l-7.9,60.9
			C103.9,310.8,107.3,315.2,112.1,315.9z"/>
	</g>
	<path class="st2" d="M76.8,145.4c-1.5,11.7,2.5,22.8,10.2,30.7c4.2,4.4,9.6,7.7,15.7,9.6c1.6,0.6,3.2,1,4.8,1.2l77.7,10.1l-1.7,13
		c-1.6,12,6.9,23,18.9,24.6c12,1.6,23-6.9,24.6-18.9l1.7-13l8,1c5.2,0.7,10.2-0.5,14.4-3.1c5.4-3.4,9.3-9,10.2-15.8
		c0.9-6.9-1.5-13.6-6.2-18.3c-0.2-22.8-17-42.2-40.1-45.2c-15.6-2-30.8,4-40.6,15.4c-3.4-2.3-7.4-3.9-11.6-4.5
		c-5.3-0.7-10.4,0.2-14.9,2.4c-5.2-11.2-15.9-19.7-29.1-21.4C98.2,110.6,79.4,125,76.8,145.4z M94.2,147.7
		c1.4-10.8,11.3-18.4,22.1-17c10.8,1.4,18.4,11.3,17,22.1c-0.1,0.5-0.2,1-0.3,1.5c-0.5,2.4,0,4.9,1.4,6.9c1.4,2,3.6,3.3,6,3.6
		c4.8,0.6,9.3-2.8,10-7.5c0.6-4.8,5-8.2,9.8-7.6c3,0.4,5.5,2.3,6.8,5.2c1.4,3.1,4.5,5.1,8,5.1c3.4,0.1,6.6-1.9,8-5
		c5.3-11.3,17.1-17.8,29.5-16.2c15.3,2,26.1,15.6,24.6,31c-0.3,3.5,1.4,6.8,4.4,8.5c1.3,0.7,2.4,2.4,2.2,4.4
		c-0.3,2.3-2.5,4.1-4.9,3.8l-16.7-2.2c-4.8-0.6-9.2,2.8-9.8,7.6l-2.8,21.7c-0.3,2.3-2.6,4.1-4.9,3.8c-2.4-0.3-4.1-2.6-3.8-4.9
		l2.8-21.7c0.6-4.8-2.8-9.2-7.6-9.8l-86.4-11.2c-0.2,0-0.6-0.1-1-0.3c-0.2-0.1-0.4-0.1-0.6-0.2C98.7,166.3,92.9,157.3,94.2,147.7z"
		/>
	<path class="st1" d="M116.3,130.7c10.8,1.4,18.4,11.3,17,22.1c-0.1,0.5-0.2,1-0.3,1.5c-0.5,2.4,0,4.9,1.4,6.9c1.4,2,3.6,3.3,6,3.6
		c4.8,0.6,9.3-2.8,10-7.5c0.6-4.8,5-8.2,9.8-7.6c3,0.4,5.5,2.3,6.8,5.2c1.4,3.1,4.5,5.1,8,5.1c3.4,0.1,6.6-1.9,8-5
		c5.3-11.3,17.1-17.8,29.5-16.2c15.3,2,26.1,15.6,24.6,31c-0.3,3.5,1.4,6.8,4.4,8.5c1.3,0.7,2.4,2.4,2.2,4.4
		c-0.3,2.3-2.5,4.1-4.9,3.8l-16.7-2.2c-4.8-0.6-9.2,2.8-9.8,7.6l-2.8,21.7c-0.3,2.3-2.6,4.1-4.9,3.8c-2.4-0.3-4.1-2.6-3.8-4.9
		l2.8-21.7c0.6-4.8-2.8-9.2-7.6-9.8l-86.4-11.2c-0.2,0-0.6-0.1-1-0.3c-0.2-0.1-0.4-0.1-0.6-0.2c-9.3-2.8-15.1-11.8-13.8-21.4
		C95.6,136.9,105.5,129.3,116.3,130.7z"/>
</g>
</svg>
